<?xml version="1.0" standalone="no"?><!DOCTYPE svg PUBLIC "-//W3C//DTD SVG 1.1//EN" "http://www.w3.org/Graphics/SVG/1.1/DTD/svg11.dtd"><svg t="1710751550784" class="icon" viewBox="0 0 1024 1024" version="1.1" xmlns="http://www.w3.org/2000/svg" p-id="1163" xmlns:xlink="http://www.w3.org/1999/xlink" width="200" height="200"><path d="M512 512m-512 0a512 512 0 1 0 1024 0 512 512 0 1 0-1024 0Z" fill="#1990FF" opacity=".2" p-id="1164"></path><path d="M512 512m-409.6 0a409.6 409.6 0 1 0 819.2 0 409.6 409.6 0 1 0-819.2 0Z" fill="#1990FF" p-id="1165"></path><path d="M47.786667 75.093333m-47.786667 0a47.786667 47.786667 0 1 0 95.573333 0 47.786667 47.786667 0 1 0-95.573333 0Z" fill="#1990FF" p-id="1166"></path><path d="M1003.52 921.6m-20.48 0a20.48 20.48 0 1 0 40.96 0 20.48 20.48 0 1 0-40.96 0Z" fill="#1990FF" p-id="1167"></path><path d="M670.446933 567.637333L585.9328 252.177067a53.384533 53.384533 0 0 0-65.262933-37.751467L91.886933 329.3184a53.384533 53.384533 0 0 0-37.6832 65.3312L138.717867 709.973333a53.384533 53.384533 0 0 0 65.3312 37.6832l149.435733-40.004266 64.9216 37.2736a20.0704 20.0704 0 0 0 27.306667-7.3728l37.614933-64.7168 149.435733-40.072534a53.248 53.248 0 0 0 37.6832-65.1264z" fill="#FFFFFF" p-id="1168"></path><path d="M202.9568 495.479467a34.884267 34.884267 0 1 0 42.8032 24.576 34.952533 34.952533 0 0 0-42.8032-24.576zM354.986667 454.656a34.884267 34.884267 0 1 0 42.871466 24.644267A34.952533 34.952533 0 0 0 354.986667 454.656zM550.365867 438.4768A35.0208 35.0208 0 1 0 525.653333 481.211733a34.952533 34.952533 0 0 0 24.712534-42.734933z" fill="#5BC1F4" p-id="1169"></path><path d="M490.973867 614.877867l63.965866-238.933334a40.277333 40.277333 0 0 1 49.425067-28.4672l324.471467 86.903467a40.3456 40.3456 0 0 1 28.4672 49.425067l-63.965867 238.933333a40.3456 40.3456 0 0 1-49.3568 28.535467l-113.117867-30.3104-49.152 28.194133a15.1552 15.1552 0 0 1-20.48-5.5296l-28.4672-49.015467L519.509333 664.234667a40.277333 40.277333 0 0 1-28.535466-49.3568z" fill="#FF9600" p-id="1170"></path><path d="M844.731733 560.264533A26.350933 26.350933 0 1 1 812.373333 578.901333a26.350933 26.350933 0 0 1 32.3584-18.6368zM729.4976 529.339733a26.4192 26.4192 0 1 1-32.426667 18.6368 26.4192 26.4192 0 0 1 32.426667-18.6368zM581.8368 517.12A26.487467 26.487467 0 1 1 600.746667 549.4784a26.487467 26.487467 0 0 1-18.909867-32.3584z" fill="#FFFFFF" p-id="1171"></path></svg>
