<svg xmlns="http://www.w3.org/2000/svg" xmlns:xlink="http://www.w3.org/1999/xlink" viewBox="0 0 114 114"><defs><style>.cls-1{fill:#fff;}.cls-2{fill:url(#未命名的渐变_80);}.cls-3{fill:url(#未命名的渐变_58);}.cls-4{fill:url(#未命名的渐变_73);}.cls-5{fill:url(#未命名的渐变_64);}</style><linearGradient id="未命名的渐变_80" x1="-56.21" y1="123.32" x2="66.9" y2="15.06" gradientUnits="userSpaceOnUse"><stop offset="0" stop-color="#66dbe2"/><stop offset="0.72" stop-color="#05cbd4"/></linearGradient><linearGradient id="未命名的渐变_58" x1="8.65" y1="45.95" x2="137.4" y2="164.93" gradientUnits="userSpaceOnUse"><stop offset="0" stop-color="#281fd1"/><stop offset="0.66" stop-color="#5b59de"/></linearGradient><linearGradient id="未命名的渐变_73" x1="94.05" y1="57.51" x2="-20.31" y2="-47.78" gradientUnits="userSpaceOnUse"><stop offset="0" stop-color="#5b59de"/><stop offset="0.77" stop-color="#281fd1"/></linearGradient><linearGradient id="未命名的渐变_64" x1="48.84" y1="101.33" x2="154.21" y2="-11.33" gradientUnits="userSpaceOnUse"><stop offset="0" stop-color="#05cbd4"/><stop offset="0.74" stop-color="#66dbe2"/></linearGradient></defs><g id="图层_2" data-name="图层 2"><g id="图层_1-2" data-name="图层 1"><rect class="cls-1" width="114" height="114" rx="20"/><path class="cls-2" d="M62.24,9H51.62a5.28,5.28,0,0,0-5.23,4.65A37.65,37.65,0,0,1,13.66,46.34a6.72,6.72,0,0,0-1,.23,4.92,4.92,0,0,1,1.22-.07,58.53,58.53,0,0,1,29,10.5A58.91,58.91,0,0,0,57,42.87,58.3,58.3,0,0,0,67.49,14.8,5.19,5.19,0,0,0,62.24,9Z"/><path class="cls-3" d="M46.51,99.2A58.3,58.3,0,0,1,57,71.13,59.09,59.09,0,0,0,42.82,57a58.53,58.53,0,0,0-29-10.5,4.92,4.92,0,0,0-1.22.07,5.28,5.28,0,0,0-3.63,5V62.43a5.28,5.28,0,0,0,4.65,5.23,37.66,37.66,0,0,1,32.74,32.69A5.28,5.28,0,0,0,51.62,105h.14A5.19,5.19,0,0,1,46.51,99.2Z"/><path class="cls-4" d="M100.35,46.34A37.66,37.66,0,0,1,67.61,13.65,5.28,5.28,0,0,0,62.38,9h-.14a5.19,5.19,0,0,1,5.25,5.8A58.3,58.3,0,0,1,57,42.87,59.09,59.09,0,0,0,71.18,57a58.53,58.53,0,0,0,29,10.5,4.92,4.92,0,0,0,1.22-.07,5.28,5.28,0,0,0,3.63-5V51.57A5.28,5.28,0,0,0,100.35,46.34Z"/><path class="cls-5" d="M100.15,67.5a58.53,58.53,0,0,1-29-10.5A58.91,58.91,0,0,0,57,71.13,58.3,58.3,0,0,0,46.51,99.2a5.19,5.19,0,0,0,5.25,5.8H62.38a5.28,5.28,0,0,0,5.23-4.65,37.65,37.65,0,0,1,32.73-32.69,6.72,6.72,0,0,0,1-.23A4.92,4.92,0,0,1,100.15,67.5Z"/></g></g></svg>