<svg xmlns="http://www.w3.org/2000/svg" viewBox="0 0 300 300"><defs><style>.cls-1{fill:#ec681a;}.cls-2{fill:#edab17;}.cls-3{fill:none;}</style></defs><g id="图层_2" data-name="图层 2"><g id="图层_1-2" data-name="图层 1"><path class="cls-1" d="M150,236.61a43.05,43.05,0,0,1-43.07-43H67.5a82.5,82.5,0,0,0,165,0H193.07A43.05,43.05,0,0,1,150,236.61Z"/><path class="cls-1" d="M193.08,106.43a43.08,43.08,0,1,1-43.08-43V24a82.44,82.44,0,1,0,82.49,82.43Z"/><polygon class="cls-2" points="232.49 24 169.5 24 169.5 63.41 193.08 63.41 193.08 63.22 193.08 63.41 193.08 86.93 232.49 86.93 232.49 24"/><rect class="cls-3" width="300" height="300" rx="24"/></g></g></svg>