<svg xmlns="http://www.w3.org/2000/svg" xmlns:xlink="http://www.w3.org/1999/xlink" viewBox="0 0 96 96"><defs><style>.cls-1{fill:url(#未命名的渐变_80);}.cls-2{fill:url(#未命名的渐变_58);}.cls-3{fill:url(#未命名的渐变_73);}.cls-4{fill:url(#未命名的渐变_64);}</style><linearGradient id="未命名的渐变_80" x1="-65.21" y1="114.32" x2="57.9" y2="6.06" gradientUnits="userSpaceOnUse"><stop offset="0" stop-color="#66dbe2"/><stop offset="0.72" stop-color="#05cbd4"/></linearGradient><linearGradient id="未命名的渐变_58" x1="-0.35" y1="36.95" x2="128.4" y2="155.93" gradientUnits="userSpaceOnUse"><stop offset="0" stop-color="#281fd1"/><stop offset="0.66" stop-color="#5b59de"/></linearGradient><linearGradient id="未命名的渐变_73" x1="85.05" y1="48.51" x2="-29.31" y2="-56.78" gradientUnits="userSpaceOnUse"><stop offset="0" stop-color="#5b59de"/><stop offset="0.77" stop-color="#281fd1"/></linearGradient><linearGradient id="未命名的渐变_64" x1="39.84" y1="92.33" x2="145.21" y2="-20.33" gradientUnits="userSpaceOnUse"><stop offset="0" stop-color="#05cbd4"/><stop offset="0.74" stop-color="#66dbe2"/></linearGradient></defs><g id="图层_2" data-name="图层 2"><g id="图层_1-2" data-name="图层 1"><path class="cls-1" d="M53.24,0H42.62a5.28,5.28,0,0,0-5.23,4.65A37.65,37.65,0,0,1,4.66,37.34a6.72,6.72,0,0,0-1,.23,4.92,4.92,0,0,1,1.22-.07,58.53,58.53,0,0,1,29,10.5A58.91,58.91,0,0,0,48,33.87,58.3,58.3,0,0,0,58.49,5.8,5.19,5.19,0,0,0,53.24,0Z"/><path class="cls-2" d="M37.51,90.2A58.3,58.3,0,0,1,48,62.13,59.09,59.09,0,0,0,33.82,48a58.53,58.53,0,0,0-29-10.5,4.92,4.92,0,0,0-1.22.07,5.28,5.28,0,0,0-3.63,5V53.43a5.28,5.28,0,0,0,4.65,5.23A37.66,37.66,0,0,1,37.39,91.35,5.28,5.28,0,0,0,42.62,96h.14A5.19,5.19,0,0,1,37.51,90.2Z"/><path class="cls-3" d="M91.35,37.34A37.66,37.66,0,0,1,58.61,4.65,5.28,5.28,0,0,0,53.38,0h-.14a5.19,5.19,0,0,1,5.25,5.8A58.3,58.3,0,0,1,48,33.87,59.09,59.09,0,0,0,62.18,48a58.53,58.53,0,0,0,29,10.5,4.92,4.92,0,0,0,1.22-.07,5.28,5.28,0,0,0,3.63-5V42.57A5.28,5.28,0,0,0,91.35,37.34Z"/><path class="cls-4" d="M91.15,58.5a58.53,58.53,0,0,1-29-10.5A58.91,58.91,0,0,0,48,62.13,58.3,58.3,0,0,0,37.51,90.2,5.19,5.19,0,0,0,42.76,96H53.38a5.28,5.28,0,0,0,5.23-4.65A37.65,37.65,0,0,1,91.34,58.66a6.72,6.72,0,0,0,1-.23A4.92,4.92,0,0,1,91.15,58.5Z"/></g></g></svg>